<svg width="161" height="24" viewBox="0 0 161 24" fill="none" xmlns="http://www.w3.org/2000/svg">
  <g clip-path="url(#clip0)">
    <path fill-rule="evenodd" clip-rule="evenodd" d="M87.87 10.89C87.87 10.89 86.31 9.92999 85.35 9.54999C85.35 9.54999 82.37 8.16999 81.77 7.50999C81.77 7.50999 80.61 6.40999 81.29 5.13999C81.29 5.13999 81.57 4.30999 82.8 4.30999C82.8 4.30999 84.4 4.39999 84.4 5.70999V7.56999H90.13L90.12 4.83999C90.12 4.83999 90.56 0.369989 83.37 0.169989C83.37 0.169989 77.71 -0.200011 76.09 2.84999C76.09 2.84999 75.45 3.52999 75.45 5.89999V7.59999C75.45 7.59999 75.38 9.56999 76.39 10.85C76.39 10.85 76.96 11.68 78.36 12.6C78.36 12.6 81.21 14.14 82.92 15.01C82.92 15.01 84.65 16 84.42 17.56C84.42 17.56 84.28 19.17 82.61 19.1C82.61 19.1 81.08 19.03 81.08 17.45V15.6H74.97V18.29C74.97 18.29 74.8 23.44 82.65 23.44C82.65 23.44 90.15 23.59 90.5 18.15V15.96C90.52 15.98 90.78 12.65 87.87 10.89Z" fill="#15299D"/>
    <path fill-rule="evenodd" clip-rule="evenodd" d="M58.51 0.809937L56.59 12.8399H56.14L54.31 0.919937H44.73L44.25 22.7099H49.92L49.99 6.28994H50.44L53.44 22.6999H59.41L62.38 6.29994H62.77L62.91 22.7099H68.61L68 0.809937H58.51Z" fill="#15299D"/>
    <path fill-rule="evenodd" clip-rule="evenodd" d="M24.76 0.900024L20.98 22.68H27.09L29.32 5.79002H29.82L32.06 22.68H38.16L34.39 0.900024H24.76Z" fill="#15299D"/>
    <path fill-rule="evenodd" clip-rule="evenodd" d="M152.86 10.59V13.8H154.43V17.25C154.43 18.94 152.99 18.97 152.99 18.97C151.24 18.97 151.3 17.37 151.3 17.37V5.43998C151.3 4.20998 152.85 4.14998 152.85 4.14998C154.34 4.14998 154.35 5.61998 154.35 5.61998V7.42998H160.1C160.29 3.88998 159.58 3.02998 159.58 3.02998C158.15 -0.170019 152.76 -1.87166e-05 152.76 -1.87166e-05C144.47 -1.87166e-05 145.39 6.35998 145.39 6.35998V17.9C145.57 23.86 153.73 23.26 153.87 23.25C157.5 22.85 158.6 21.69 158.6 21.69C159.61 20.94 159.87 19.9 159.87 19.9C160.16 19.29 160.23 17.37 160.23 17.37V10.59H152.86Z" fill="#15299D"/>
    <path fill-rule="evenodd" clip-rule="evenodd" d="M133.8 14.1399H133.56L127.72 0.819937H120.74V22.7099H126.42L126.08 9.38994H126.34L132.38 22.7099H139.15V0.809937H133.4L133.8 14.1399Z" fill="#15299D"/>
    <path fill-rule="evenodd" clip-rule="evenodd" d="M106.88 17.25C106.88 17.25 106.96 19.05 105.3 19.05C105.3 19.05 103.55 19.14 103.55 17.3L103.53 0.829956H97.3V17.17C97.3 17.17 96.66 23.35 105.39 23.35C105.39 23.35 112.97 23.44 112.97 17.45V0.829956H106.88V17.25Z" fill="#15299D"/>
    <path fill-rule="evenodd" clip-rule="evenodd" d="M12.88 10.89C12.88 10.89 11.32 9.92998 10.36 9.54998C10.36 9.54998 7.38 8.16998 6.79 7.50998C6.79 7.50998 5.63 6.40998 6.31 5.13998C6.31 5.13998 6.59 4.30998 7.82 4.30998C7.82 4.30998 9.42 4.39998 9.42 5.70998V7.56998H15.16L15.15 4.83998C15.15 4.83998 15.59 0.36998 8.4 0.16998C8.4 0.16998 7.86 0.13998 7.06 0.17998C7.06 0.17998 2.7 0.40998 1.15 2.79998C1.12 2.81998 1.11 2.82998 1.1 2.84998C1.1 2.84998 0.459999 3.52998 0.459999 5.89998V7.59998C0.459999 7.59998 0.389999 9.56998 1.4 10.85C1.4 10.85 1.97 11.68 3.37 12.6C3.37 12.6 6.22 14.13 7.93 15.01C7.93 15.01 9.66 16 9.43 17.57C9.43 17.57 9.29 19.18 7.62 19.11C7.62 19.11 6.09 19.04 6.09 17.46V15.61H-7.50646e-07V18.3C-7.50646e-07 18.3 -0.170001 23.45 7.68 23.45C7.68 23.45 15.18 23.6 15.53 18.16V15.97C15.53 15.98 15.8 12.65 12.88 10.89Z" fill="#15299D"/>
  </g>
  <defs>
    <clipPath id="clip0">
      <rect width="160.24" height="23.46" fill="white"/>
    </clipPath>
  </defs>
</svg>
