<svg width="61" height="78" viewBox="0 0 61 78" fill="none" xmlns="http://www.w3.org/2000/svg">
  <g opacity="0.54">
    <path d="M57.19 1H3.81C2.26 1 1 2.26 1 3.81V74.19C1 75.74 2.26 77 3.81 77H57.18C58.73 77 59.99 75.74 59.99 74.19V3.81C60 2.26 58.74 1 57.19 1Z" stroke="#202020" stroke-width="2" stroke-miterlimit="10"/>
    <path d="M57 4H4V70H57V4Z" stroke="#202020" stroke-width="2" stroke-miterlimit="10"/>
    <path d="M30.5 75C31.3284 75 32 74.3284 32 73.5C32 72.6716 31.3284 72 30.5 72C29.6716 72 29 72.6716 29 73.5C29 74.3284 29.6716 75 30.5 75Z" stroke="#202020" stroke-width="2" stroke-miterlimit="10"/>
  </g>
</svg>
