<svg width="24" height="24" viewBox="0 0 24 24" fill="none" xmlns="http://www.w3.org/2000/svg">
<g clip-path="url(#clip0)">
<path d="M24 12.2755C24 11.4598 23.9326 10.6397 23.7886 9.83716H12.2407V14.4581H18.8537C18.5792 15.9485 17.6975 17.2669 16.4064 18.1047V21.103H20.3517C22.6685 19.013 24 15.9264 24 12.2755Z" fill="#4285F4"/>
<path d="M12.2409 24.0001C15.5428 24.0001 18.3275 22.9374 20.3563 21.1032L16.4111 18.1048C15.3134 18.8368 13.8964 19.2512 12.2454 19.2512C9.05137 19.2512 6.34322 17.1392 5.37152 14.2996H1.30029V17.3905C3.37864 21.4427 7.61182 24.0001 12.2409 24.0001Z" fill="#34A853"/>
<path d="M5.36712 14.2997C4.85428 12.8094 4.85428 11.1956 5.36712 9.7052V6.61426H1.30039C-0.436067 10.005 -0.436067 13.9999 1.30039 17.3907L5.36712 14.2997Z" fill="#FBBC04"/>
<path d="M12.2409 4.74868C13.9863 4.72223 15.6733 5.36599 16.9374 6.54769L20.4328 3.12164C18.2195 1.08453 15.2819 -0.0354426 12.2409 -0.000167897C7.61182 -0.000167897 3.37864 2.55725 1.30029 6.61383L5.36702 9.70477C6.33422 6.86075 9.04687 4.74868 12.2409 4.74868Z" fill="#EA4335"/>
</g>
<defs>
<clipPath id="clip0">
<rect width="24" height="24" fill="white"/>
</clipPath>
</defs>
</svg>
