<svg width="56" height="56" viewBox="0 0 56 56" fill="none" xmlns="http://www.w3.org/2000/svg">
<path fill-rule="evenodd" clip-rule="evenodd" d="M10.531 7.02832C10.6636 6.99041 10.7584 7.1136 10.8532 7.18942C12.2225 8.45928 14.0752 9.18898 15.9421 9.20793C17.8896 9.24584 19.8417 8.50666 21.268 7.17994C21.358 7.10887 21.4622 6.98093 21.5902 7.04253C21.7181 7.12308 21.8129 7.24154 21.9219 7.34578C23.0638 8.49245 24.201 9.63438 25.3476 10.7763C25.4235 10.8521 25.5135 10.9469 25.4756 11.0653C25.3429 11.2454 25.1629 11.3828 25.0018 11.5344C23.5092 12.8706 21.7134 13.8704 19.7849 14.4201C17.2736 15.1403 14.5538 15.1166 12.0567 14.3395C10.0951 13.733 8.28502 12.6622 6.79719 11.2501C6.72138 11.1648 6.60292 11.0843 6.62661 10.9564C6.70243 10.8047 6.84458 10.7005 6.95829 10.5773C8.10496 9.43537 9.24216 8.2887 10.3841 7.14677C10.4267 7.09939 10.4789 7.06148 10.531 7.02832Z" fill="#EA5B08"/>
<path fill-rule="evenodd" clip-rule="evenodd" d="M30.9961 7.05159C31.0956 6.9663 31.2141 7.06107 31.2852 7.13214C32.5029 8.34989 33.7159 9.56763 34.9337 10.7806C35 10.8517 35.09 10.937 35.0569 11.046C35 11.1502 34.91 11.2355 34.8342 11.3208C33.569 12.7233 32.863 14.6092 32.882 16.495C32.882 18.4046 33.6259 20.2999 34.9337 21.6929C35.0474 21.7877 35.1279 21.963 34.9858 22.0767C33.7538 23.3134 32.5124 24.5501 31.2757 25.7868C31.1809 25.9148 31.0009 25.91 30.9061 25.7821C29.84 24.6781 28.9634 23.3893 28.3332 21.9867C27.3998 19.9303 27.0112 17.6322 27.1913 15.3815C27.4329 12.2779 28.7881 9.2549 30.9961 7.05159Z" fill="#E9470A"/>
<path fill-rule="evenodd" clip-rule="evenodd" d="M10.361 16.585C10.4605 16.4808 10.6026 16.5613 10.6784 16.6514C11.7872 17.7649 12.9007 18.8736 14.0094 19.9871C14.1516 20.1388 14.3174 20.2667 14.4359 20.442C14.488 20.5794 14.3601 20.6789 14.2843 20.7737C12.9765 22.1904 12.2421 24.1142 12.2658 26.0427C12.2752 27.9285 13.0097 29.8002 14.289 31.1837C14.3506 31.269 14.4643 31.3448 14.4454 31.4633C14.4406 31.5486 14.3601 31.596 14.3127 31.6576C13.095 32.8706 11.8867 34.0931 10.6689 35.3013C10.6026 35.3724 10.5031 35.4387 10.4036 35.3914C10.2567 35.2871 10.143 35.145 10.0198 35.0123C8.76415 33.6287 7.79753 31.9798 7.21472 30.2029C6.39026 27.7011 6.32392 24.9623 7.01097 22.4226C7.61274 20.2335 8.76415 18.1913 10.361 16.585Z" fill="#E6035C"/>
<path fill-rule="evenodd" clip-rule="evenodd" d="M20.0883 27.63C20.2257 27.5542 20.3394 27.6963 20.4342 27.7722C21.8225 29.0562 23.7084 29.7907 25.6037 29.7859C27.5322 29.8049 29.4559 29.061 30.8632 27.7437C30.958 27.6347 31.1333 27.54 31.247 27.6869C32.3652 28.7956 33.474 29.9139 34.5875 31.0226C34.7391 31.1837 34.9144 31.3211 35.0424 31.5012C35.0992 31.6007 35.0234 31.7049 34.9524 31.776C33.3319 33.3397 31.3133 34.4911 29.1385 35.0691C26.6935 35.723 24.0685 35.6756 21.6472 34.9317C19.6429 34.311 17.7855 33.2117 16.2835 31.7476C16.1603 31.6576 16.1934 31.487 16.3024 31.4017C17.4443 30.2598 18.591 29.1178 19.7329 27.9712C19.8467 27.848 19.9556 27.72 20.0883 27.63ZM34.4738 39.4521C35.0045 39.3099 35.5873 39.7079 35.6536 40.2528C35.7436 40.7503 35.3788 41.2668 34.8813 41.3521C34.3601 41.4706 33.8009 41.0773 33.7346 40.5513C33.6446 40.0633 33.9905 39.5563 34.4738 39.4521ZM9.16654 42.1671C9.87254 42.0297 10.6259 42.1102 11.2798 42.4182C12.0758 42.7831 12.7203 43.4654 13.0377 44.2804C13.412 45.2186 13.341 46.3178 12.8529 47.1992C12.3744 48.0758 11.4978 48.7249 10.517 48.9144C9.62615 49.0992 8.66901 48.9097 7.91562 48.398C7.22857 47.9383 6.71684 47.2229 6.51309 46.4268C6.26196 45.4981 6.42306 44.4699 6.94901 43.6691C7.44653 42.8968 8.26626 42.3424 9.16654 42.1671ZM9.41293 43.636C9.10494 43.7023 8.8159 43.8492 8.57899 44.0529C7.83507 44.6547 7.66449 45.8298 8.20466 46.6164C8.72113 47.4408 9.89149 47.7441 10.7444 47.275C11.5925 46.8533 12.019 45.7682 11.6826 44.8821C11.3746 43.9771 10.3416 43.4038 9.41293 43.636ZM16.9326 42.1813C17.8897 42.0818 18.9606 41.9681 19.8088 42.5272C20.8559 42.2097 21.9599 42.0202 23.0545 42.1387C23.5378 42.1955 24.0637 42.3282 24.3907 42.712C24.7082 43.0769 24.7745 43.5838 24.7745 44.0529C24.7745 45.5502 24.7745 47.0475 24.7745 48.5448C24.7792 48.6633 24.7555 48.8197 24.6039 48.8149C24.149 48.8244 23.6942 48.8339 23.244 48.8102C23.1113 48.8007 23.0971 48.6491 23.1019 48.5448C23.1019 47.1091 23.1019 45.6734 23.1019 44.2377C23.0971 43.9866 23.0734 43.7118 22.9076 43.5128C22.7465 43.3232 22.4859 43.2616 22.249 43.2522C21.6851 43.2332 21.126 43.3375 20.5811 43.4559C20.5716 45.1712 20.5858 46.8864 20.5764 48.6017C20.5906 48.7249 20.5053 48.8339 20.3773 48.8149C19.9035 48.8102 19.4202 48.8528 18.9511 48.7865C18.9322 48.687 18.918 48.5828 18.918 48.4832C18.918 47.0665 18.918 45.6545 18.918 44.2377C18.918 43.9392 18.8753 43.5791 18.6052 43.3991C18.3209 43.2143 17.9656 43.2522 17.6433 43.2616C17.2216 43.2901 16.8047 43.3706 16.3877 43.4464C16.3356 45.2186 16.4019 46.9907 16.3545 48.7628C16.1271 48.8481 15.876 48.8102 15.639 48.8149C15.3737 48.8055 15.1036 48.8339 14.8383 48.8007C14.7056 48.7912 14.6914 48.6444 14.6961 48.5401C14.7009 46.749 14.6914 44.9627 14.7009 43.1716C14.6914 42.9063 14.8809 42.6836 15.1178 42.5935C15.6864 42.3614 16.3119 42.2666 16.9326 42.1813ZM27.6269 42.3519C28.4941 42.1671 29.3896 42.0676 30.2804 42.115C30.74 42.1481 31.2186 42.2192 31.6071 42.4798C31.9056 42.6788 32.0952 43.0058 32.1757 43.3517C32.2563 43.6834 32.242 44.0292 32.242 44.3657C32.242 45.5929 32.242 46.8201 32.242 48.0426C32.242 48.289 32.261 48.5401 32.2089 48.7818C31.9435 48.8386 31.6734 48.8102 31.4034 48.8149C31.1333 48.8102 30.8632 48.8386 30.5979 48.777C30.5789 48.6775 30.5599 48.578 30.5599 48.4785C30.5599 47.0618 30.5599 45.6497 30.5599 44.233C30.5552 43.9866 30.541 43.7165 30.3846 43.5128C30.2283 43.309 29.9582 43.2569 29.7165 43.2474C29.2285 43.238 28.7404 43.309 28.2619 43.4085C28.1908 43.4322 28.0439 43.4322 28.0676 43.5459C28.0629 45.0859 28.0676 46.6211 28.0676 48.161C28.0629 48.3553 28.0866 48.5496 28.0439 48.7391C27.9397 48.8386 27.788 48.8055 27.6601 48.8149C27.2858 48.8055 26.9162 48.8291 26.5419 48.8007C26.4045 48.7912 26.3855 48.6444 26.3902 48.5354C26.3902 46.768 26.3902 45.0006 26.3902 43.2332C26.3808 43.0153 26.4661 42.7878 26.6556 42.6741C26.9541 42.5035 27.3 42.4372 27.6269 42.3519ZM44.5521 42.4277C45.5282 42.1718 46.547 42.0534 47.5515 42.1245C48.1201 42.1718 48.7361 42.2808 49.1672 42.6883C49.5321 43.0389 49.6079 43.5744 49.6079 44.0577C49.6079 45.2233 49.6079 46.3889 49.6079 47.5545C49.6032 47.8294 49.5795 48.1279 49.4136 48.3601C49.2525 48.578 48.9777 48.668 48.7266 48.7439C47.8358 48.9902 46.8976 49.0234 45.9831 48.9713C45.3719 48.9239 44.7085 48.8055 44.2442 48.3648C43.8367 47.9857 43.6945 47.4077 43.6992 46.8722C43.6945 46.3321 43.8272 45.7492 44.2347 45.3702C44.6564 44.9769 45.2439 44.8348 45.7936 44.7589C46.5043 44.6879 47.2103 44.6263 47.9211 44.5599C47.9163 44.2709 47.9637 43.9677 47.8547 43.6928C47.7552 43.4607 47.4899 43.3801 47.2577 43.3422C46.3811 43.2332 45.4998 43.3848 44.6564 43.6075C44.5427 43.6312 44.4242 43.6786 44.3058 43.6454C44.192 43.4464 44.1873 43.2 44.121 42.9821C44.1067 42.8589 44.0262 42.7025 44.1257 42.5983C44.2584 42.4988 44.41 42.4703 44.5521 42.4277ZM46.4238 45.8061C46.0968 45.8488 45.7225 45.934 45.5424 46.2373C45.3719 46.55 45.3624 46.9386 45.4666 47.275C45.5661 47.5924 45.8789 47.7915 46.1963 47.8483C46.7697 47.9478 47.362 47.891 47.9211 47.7299C47.94 47.0381 47.9258 46.3415 47.9258 45.645C47.4283 45.6877 46.926 45.7493 46.4238 45.8061ZM36.8619 42.2856C37.2836 42.2334 37.7148 42.2713 38.1412 42.2619C38.2786 42.2571 38.4824 42.2571 38.5156 42.4324C38.9799 44.1619 39.4158 45.9009 39.8802 47.6304C39.9607 47.6161 40.0034 47.5735 40.0129 47.4977C40.3967 45.8582 40.7805 44.2188 41.1595 42.5793C41.188 42.4798 41.2022 42.3614 41.2969 42.2998C41.4628 42.2429 41.6428 42.2713 41.8134 42.2619C42.1403 42.2713 42.472 42.2429 42.799 42.2761C42.9601 42.2808 42.9838 42.4846 42.9316 42.603C42.3536 44.5836 41.7755 46.569 41.2022 48.5496C41.169 48.6728 41.0979 48.8291 40.9463 48.8197C40.2592 48.8339 39.5769 48.8291 38.8899 48.8244C38.7383 48.8339 38.653 48.6917 38.6198 48.5638C38.0607 46.6969 37.5063 44.83 36.9472 42.9584C36.8856 42.7357 36.7576 42.5083 36.8619 42.2856ZM33.891 42.4514C33.981 42.3424 34.1421 42.3803 34.2653 42.3708C34.6728 42.3851 35.085 42.3424 35.4878 42.3993C35.5115 42.513 35.5257 42.6267 35.5257 42.7452C35.5209 44.6973 35.5304 46.6543 35.5209 48.6064C35.5494 48.7628 35.3977 48.8386 35.2651 48.8197C34.8102 48.8055 34.3506 48.8576 33.8957 48.7865C33.8768 48.687 33.8578 48.5875 33.8578 48.488C33.8578 46.6353 33.8578 44.7874 33.8578 42.9347C33.8673 42.7736 33.8436 42.6078 33.891 42.4514Z" fill="#E4022C"/>
</svg>
