<svg width="36" height="36" viewBox="0 0 36 36" fill="none" xmlns="http://www.w3.org/2000/svg">
<path d="M27 27.75C28.245 27.75 29.25 26.745 29.25 25.5C29.25 24.255 28.245 23.25 27 23.25C25.755 23.25 24.75 24.255 24.75 25.5C24.75 26.745 25.755 27.75 27 27.75ZM29.25 14.25H25.5V18H32.19L29.25 14.25ZM9 27.75C10.245 27.75 11.25 26.745 11.25 25.5C11.25 24.255 10.245 23.25 9 23.25C7.755 23.25 6.75 24.255 6.75 25.5C6.75 26.745 7.755 27.75 9 27.75ZM30 12L34.5 18V25.5H31.5C31.5 27.99 29.49 30 27 30C24.51 30 22.5 27.99 22.5 25.5H13.5C13.5 27.99 11.49 30 9 30C6.51 30 4.5 27.99 4.5 25.5H1.5V9C1.5 7.335 2.835 6 4.5 6H25.5V12H30ZM4.5 9V22.5H5.64C6.465 21.585 7.665 21 9 21C10.335 21 11.535 21.585 12.36 22.5H22.5V9H4.5ZM15 10.5L20.25 15.75L15 21V17.25H7.5V14.25H15V10.5Z" fill="#CC2830"/>
</svg>
