<svg width="24" height="24" viewBox="0 0 24 24" fill="none" xmlns="http://www.w3.org/2000/svg">
  <g clip-path="url(#clip0)">
    <path d="M23.9999 12.2755C23.9999 11.4598 23.9324 10.6397 23.7885 9.83716H12.2406V14.4581H18.8535C18.5791 15.9485 17.6974 17.2669 16.4063 18.1047V21.103H20.3516C22.6683 19.013 23.9999 15.9264 23.9999 12.2755Z" fill="#4285F4"/>
    <path d="M12.2408 24.0002C15.5428 24.0002 18.3274 22.9376 20.3563 21.1033L16.411 18.1049C15.3134 18.8369 13.8963 19.2514 12.2453 19.2514C9.05131 19.2514 6.34316 17.1393 5.37146 14.2997H1.30023V17.3906C3.37858 21.4428 7.61176 24.0002 12.2408 24.0002Z" fill="#34A853"/>
    <path d="M5.36694 14.2997C4.8541 12.8093 4.8541 11.1955 5.36694 9.70514V6.6142H1.30021C-0.436251 10.005 -0.436251 13.9998 1.30021 17.3906L5.36694 14.2997Z" fill="#FBBC04"/>
    <path d="M12.2408 4.74868C13.9863 4.72223 15.6732 5.36599 16.9373 6.54769L20.4328 3.12164C18.2194 1.08453 15.2819 -0.0354426 12.2408 -0.000167897C7.61176 -0.000167897 3.37858 2.55725 1.30023 6.61383L5.36696 9.70477C6.33416 6.86075 9.04681 4.74868 12.2408 4.74868Z" fill="#EA4335"/>
  </g>
  <defs>
    <clipPath id="clip0">
      <rect width="24" height="24" fill="white"/>
    </clipPath>
  </defs>
</svg>
