<svg width="25" height="24" viewBox="0 0 25 24" fill="none" xmlns="http://www.w3.org/2000/svg">
  <path d="M15.6269 14H14.8335L14.5523 13.73C15.5365 12.59 16.129 11.11 16.129 9.5C16.129 5.91 13.2065 3 9.60114 3C5.99573 3 3.07324 5.91 3.07324 9.5C3.07324 13.09 5.99573 16 9.60114 16C11.218 16 12.7044 15.41 13.8493 14.43L14.1205 14.71V15.5L19.1419 20.49L20.6383 19L15.6269 14V14ZM9.60114 14C7.10045 14 5.08183 11.99 5.08183 9.5C5.08183 7.01 7.10045 5 9.60114 5C12.1018 5 14.1205 7.01 14.1205 9.5C14.1205 11.99 12.1018 14 9.60114 14Z" fill="#202020"/>
</svg>
