<svg width="69" height="88" viewBox="0 0 69 88" fill="none" xmlns="http://www.w3.org/2000/svg">
    <g opacity="0.54">
        <path d="M65.19 1H3.81C2.26 1 1 2.26 1 3.81V84.19C1 85.74 2.26 87 3.81 87H65.19C66.74 87 68 85.74 68 84.19V3.81C68 2.26 66.74 1 65.19 1Z" stroke="#202020" stroke-width="2" stroke-miterlimit="10"/>
        <path d="M65 4H4V80H65V4Z" stroke="#202020" stroke-width="2" stroke-miterlimit="10"/>
        <path d="M34.5 85C35.3284 85 36 84.3284 36 83.5C36 82.6716 35.3284 82 34.5 82C33.6716 82 33 82.6716 33 83.5C33 84.3284 33.6716 85 34.5 85Z" stroke="#202020" stroke-width="2" stroke-miterlimit="10"/>
    </g>
</svg>
